Coordinates
version=1
nRows=9
nColumns=42
inDegrees=yes

Units are S.I. units (second, meters, Newtons, ...)
If the header above contains a line with 'inDegrees', this indicates whether rotational values are in degrees (yes) or radians (no).

endheader
time	pelvis_tilt	pelvis_list	pelvis_rotation	pelvis_tx	pelvis_ty	pelvis_tz	hip_flexion_r	hip_adduction_r	hip_rotation_r	knee_angle_r	knee_adduction_r	knee_angle_r_beta	ankle_angle_r	subtalar_angle_r	mtp_angle_r	hip_flexion_l	hip_adduction_l	hip_rotation_l	knee_angle_l	knee_adduction_l	knee_angle_l_beta	ankle_angle_l	subtalar_angle_l	mtp_angle_l	lumbar_extension	lumbar_bending	lumbar_rotation	arm_flex_r	arm_add_r	arm_rot_r	elbow_flex_r	pro_sup_r	wrist_flex_r	wrist_dev_r	arm_flex_l	arm_add_l	arm_rot_l	elbow_flex_l	pro_sup_l	wrist_flex_l	wrist_dev_l
      1.10000000	      6.68738693	     -2.85794955	     -4.95014160	      0.16554574	      1.00993195	     -0.20042438	    -20.04808592	      0.69616498	      0.23476352	      4.94860320	     10.72036383	      0.08636942	     11.31994017	      7.12466934	     -7.56131258	     17.26281366	    -12.76670081	    -13.70717137	     22.84500523	     10.93686616	      0.39872056	      0.12739319	    -12.39737065	     -7.56131258	    -14.49756704	     -0.24114410	     11.33614963	     13.44688346	    -21.46152504	     -7.15246173	     39.63622767	     90.00000001	      0.00000000	      0.00000000	    -18.37717853	    -12.82341974	     -3.40985599	     20.72899103	     90.00000001	      0.00000000	      0.00000000
      1.11000000	      6.39776202	     -3.16299342	     -5.31863169	      0.17873538	      1.00727850	     -0.19973535	    -20.46531750	      0.84690817	      0.41220935	      5.22009294	     10.72266269	      0.09110781	     11.74847715	      7.47768521	     -7.55886003	     17.32315061	    -13.03528019	    -14.31489322	     19.42752970	     11.26742348	      0.33907436	      0.17806992	    -10.82397474	     -7.55886003	    -14.26852827	     -0.08068529	     11.73252095	     14.01072534	    -22.01680251	     -6.61731186	     40.45972563	     90.00000001	      0.00000000	      0.00000000	    -19.21120258	    -12.69415153	     -3.82544970	     20.56951171	     90.00000001	      0.00000000	      0.00000000
      1.12000000	      5.82435592	     -3.56084331	     -5.60983755	      0.19193094	      1.00424998	     -0.19903513	    -20.52872977	      1.20889676	      0.64647983	      5.61968112	     10.60860763	      0.09808194	     12.10181918	      7.64926140	     -7.55779751	     17.77342660	    -13.46764719	    -14.78821388	     16.34595032	     11.69308638	      0.28529065	      0.19243630	     -9.05437899	     -7.55779751	    -13.73511158	      0.21760324	     12.05816814	     14.52784138	    -22.49259681	     -6.29155179	     41.10038831	     90.00000001	      0.00000000	      0.00000000	    -20.09421405	    -12.58561667	     -4.04387332	     20.53432836	     90.00000001	      0.00000000	      0.00000000
      1.13000000	      5.84067735	     -3.66656709	     -6.04360164	      0.20568570	      1.00188676	     -0.19849876	    -21.29477920	      1.04890686	      0.89537298	      5.87737156	     10.62731553	      0.10257949	     12.45723816	      7.94749296	     -7.55571145	     17.35875106	    -13.53075437	    -15.55784418	     13.24298700	     12.13099353	      0.23113373	      0.48207594	     -7.14906745	     -7.55571145	    -13.78979004	      0.12600214	     12.42971784	     14.95574588	    -23.02703638	     -5.67019065	     41.94867224	     90.00000001	      0.00000000	      0.00000000	    -20.80484478	    -12.41442175	     -4.67740740	     20.30140656	     90.00000001	      0.00000000	      0.00000000
      1.14000000	      5.35980428	     -3.97409623	     -6.38186393	      0.21916643	      0.99900015	     -0.19784781	    -21.42748185	      1.24886985	      1.22296156	      6.34888837	     10.55035218	      0.11080901	     12.69989120	      8.06646568	     -7.55467970	     17.68331892	    -13.87056428	    -15.95374287	     10.70411726	     12.56650676	      0.18682209	      0.51435404	     -5.32424337	     -7.55467970	    -13.34785757	      0.30745532	     12.71730629	     15.39291102	    -23.39224352	     -5.38945716	     42.55378623	     90.00000001	      0.00000000	      0.00000000	    -21.56755617	    -12.29970524	     -5.00626778	     20.25116379	     90.00000001	      0.00000000	      0.00000000
      1.15000000	      5.37628275	     -3.92021707	     -6.82377643	      0.23332957	      0.99671427	     -0.19736117	    -22.14245567	      0.88927874	      1.51573325	      6.68718300	     10.57338807	      0.11671336	     12.90860934	      8.24039079	     -7.55194232	     17.37588530	    -13.80658613	    -16.89602199	      8.55730257	     12.97160069	      0.14935310	      0.86141540	     -3.10057273	     -7.55194232	    -13.35311078	      0.02967438	     13.00701269	     15.68904257	    -23.76624433	     -4.90686302	     43.27933927	     90.00000001	      0.00000000	      0.00000000	    -22.13182631	    -12.08686125	     -6.04210590	     19.89748285	     90.00000001	      0.00000000	      0.00000000
      1.16000000	      5.04438130	     -4.09676462	     -7.17264327	      0.24724428	      0.99414662	     -0.19673131	    -22.38595565	      0.92092005	      1.90986281	      7.25257952	     10.46518007	      0.12658139	     13.02976993	      8.24509802	     -7.55103176	     17.60932209	    -14.00087746	    -17.16377965	      6.95280267	     13.32225723	      0.12134930	      1.03921113	     -1.64367789	     -7.55103176	    -13.03587327	      0.04351967	     13.24506484	     15.96646655	    -24.02132739	     -4.67955431	     43.86036553	     90.00000001	      0.00000000	      0.00000000	    -22.74882719	    -11.99172741	     -6.37172353	     19.79721987	     90.00000001	      0.00000000	      0.00000000
      1.17000000	      5.08866196	     -3.88871637	     -7.62583987	      0.26178376	      0.99206314	     -0.19635626	    -23.02996713	      0.36027532	      2.27733441	      7.75881266	     10.48697648	      0.13541683	     13.08803057	      8.29096821	     -7.54824945	     17.45182075	    -13.74258829	    -18.04188307	      6.00684612	     13.52310852	      0.10483924	      1.45439339	      0.30034256	     -7.54824945	    -13.02501907	     -0.40538434	     13.48466800	     16.10582494	    -24.26595473	     -4.32892189	     44.52158626	     90.00000001	      0.00000000	      0.00000000	    -23.15317077	    -11.79830330	     -7.48436746	     19.40674217	     90.00000001	      0.00000000	      0.00000000
      1.18000000	      4.89310689	     -3.86060367	     -7.98792330	      0.27621769	      0.98984239	     -0.19587345	    -23.33128637	      0.13084654	      2.70103831	      8.46243286	     10.36522934	      0.14769732	     13.05783528	      8.20070521	     -7.54747944	     17.63811579	    -13.67085682	    -18.05172416	      5.46689237	     13.67561820	      0.09541527	      1.62116816	      1.02184071	     -7.54747944	    -12.78873712	     -0.62991399	     13.67761910	     16.17114242	    -24.40474633	     -4.19178355	     45.07627342	     90.00000001	      0.00000000	      0.00000000	    -23.63220491	    -11.73845880	     -7.76128480	     19.32204720	     90.00000001	      0.00000000	      0.00000000
